<svg width="242" height="74" viewBox="0 0 242 74" fill="none" xmlns="http://www.w3.org/2000/svg">
<path d="M1.17918 72.0548C0.5329 72.0548 0 71.5332 0 70.8756V21.9396C0 18.3114 0.861709 15.0686 2.57379 12.2C4.28587 9.33146 6.57619 7.06381 9.44478 5.38575C12.3134 3.70769 15.5561 2.86865 19.1844 2.86865H42.7226C43.3689 2.86865 43.9018 3.39021 43.9018 4.04783V12.0753C43.9018 12.7216 43.3802 13.2545 42.7226 13.2545H20.4769C17.9712 13.2545 15.9076 14.0935 14.2976 15.7716C12.6875 17.4497 11.8712 19.5132 11.8712 21.951V34.5251C11.8712 34.5251 11.9052 34.6045 11.9505 34.6045H39.2531C39.8994 34.6045 40.4323 35.126 40.4323 35.7836V43.8111C40.4323 44.4574 39.9107 44.9903 39.2531 44.9903H11.9505C11.9505 44.9903 11.8712 45.0243 11.8712 45.0697V70.8983C11.8712 71.5445 11.3496 72.0775 10.692 72.0775H1.17918V72.0548Z" fill="black"/>
<path d="M59.7754 14.6264C57.8139 14.6264 56.1131 13.8894 54.6618 12.4494C53.2105 10.9981 52.4849 9.28604 52.4849 7.31318C52.4849 5.34032 53.2105 3.62824 54.6618 2.17695C56.1018 0.736986 57.8025 0.0113383 59.7754 0C61.8389 0 63.8571 0.907055 65.2404 2.43772C66.499 3.83233 67.1226 5.4537 67.1226 7.31318C67.1226 9.17266 66.499 10.8054 65.2404 12.2C63.8571 13.7306 61.8389 14.6377 59.7754 14.6264ZM54.1743 70.8755V22.8239C54.1743 22.1777 54.6958 21.6448 55.3534 21.6448H64.3674C65.0136 21.6448 65.5465 22.1663 65.5465 22.8239V70.8755C65.5465 71.5218 65.025 72.0547 64.3674 72.0547H55.3534C54.7072 72.0547 54.1743 71.5331 54.1743 70.8755Z" fill="black"/>
<path d="M84.7762 14.6264C82.8147 14.6264 81.1026 13.8894 79.674 12.4494C78.2227 10.9981 77.4971 9.28604 77.4971 7.31318C77.4971 5.34032 78.2227 3.62824 79.674 2.17695C81.114 0.736986 82.8147 0.0113383 84.7876 0C86.8511 0 88.8694 0.895723 90.2413 2.42639C91.4998 3.821 92.1348 5.4537 92.1348 7.31318C92.1348 9.17266 91.4998 10.8054 90.2413 12.2C88.858 13.7306 86.8398 14.6264 84.7876 14.6264H84.7762ZM79.1751 70.8755V22.8239C79.1751 22.1777 79.6967 21.6448 80.3543 21.6448H89.3682C90.0145 21.6448 90.5474 22.1663 90.5474 22.8239V70.8755C90.5474 71.5218 90.0259 72.0547 89.3682 72.0547H80.3543C79.708 72.0547 79.1751 71.5331 79.1751 70.8755Z" fill="black"/>
<path d="M98.541 30.1598V22.8239C98.541 22.1776 99.0626 21.6447 99.7202 21.6447H133.043C133.69 21.6447 134.223 22.1663 134.223 22.8239V30.1598C134.223 30.806 133.701 31.3389 133.043 31.3389H99.7202C99.0739 31.3389 98.541 30.8174 98.541 30.1598ZM121.569 72.0547C117.09 72.0547 113.576 70.7734 111.047 68.1997C108.519 65.6259 107.237 62.1337 107.237 57.7231V10.1704C107.237 9.5241 107.759 8.99121 108.417 8.99121H117.329C117.975 8.99121 118.508 9.51276 118.508 10.1704V57.2242C118.508 58.7435 118.973 59.9794 119.891 60.9318C120.809 61.8842 122.034 62.3604 123.553 62.3604H132.953C133.599 62.3604 134.132 62.882 134.132 63.5396V70.8755C134.132 71.5218 133.61 72.0547 132.953 72.0547H121.58H121.569Z" fill="black"/>
<path d="M144.699 70.8755V63.5397C144.699 62.8934 145.22 62.3605 145.878 62.3605H169.02C170.21 62.3605 171.242 62.0997 172.138 61.5668C173.022 61.0453 173.725 60.3536 174.212 59.4919C174.7 58.6302 174.949 57.7458 174.949 56.8274C174.949 55.773 174.723 54.8546 174.258 54.0609C173.793 53.2672 173.135 52.6323 172.285 52.1334C171.423 51.6345 170.437 51.3964 169.314 51.3964H159.427C156.196 51.3964 153.327 50.8748 150.833 49.8204C148.327 48.7659 146.354 47.1332 144.903 44.9222C143.452 42.7113 142.726 39.9334 142.726 36.5659C142.726 33.8674 143.406 31.3957 144.756 29.1507C146.105 26.9057 147.93 25.1029 150.243 23.7197C152.545 22.3364 155.153 21.6448 158.055 21.6448H180.301C180.947 21.6448 181.48 22.1663 181.48 22.8239V30.1598C181.48 30.8061 180.959 31.339 180.301 31.339H159.144C157.625 31.339 156.377 31.8152 155.391 32.7676C154.404 33.72 153.906 34.8879 153.906 36.2711C153.906 37.6544 154.404 38.7429 155.391 39.7293C156.377 40.7157 157.693 41.2146 159.348 41.2146H168.94C172.557 41.2146 175.664 41.7702 178.226 42.8927C180.8 44.0152 182.75 45.6932 184.111 47.9382C185.641 50.4893 186.31 53.8001 186.095 57.8819C186.038 58.8683 185.868 59.8661 185.562 60.8072C184.213 64.8663 181.82 67.9049 178.374 69.9345C175.97 71.3517 173.249 72.0547 170.221 72.0547H145.901C145.255 72.0547 144.722 71.5332 144.722 70.8755H144.699Z" fill="black"/>
<path d="M200.211 14.4335C202.252 14.4335 203.907 13.844 205.2 12.6534C206.493 11.4629 207.139 9.98895 207.139 8.20884C207.139 6.42873 206.481 4.93208 205.155 3.70754C203.828 2.49435 202.184 1.88208 200.223 1.88208C198.261 1.88208 196.64 2.49435 195.392 3.70754C194.134 4.93208 193.51 6.42873 193.51 8.20884C193.51 9.98895 194.123 11.4743 195.347 12.6534C196.572 13.844 198.193 14.4335 200.234 14.4335H200.211Z" fill="black"/>
<path d="M205.223 21.6448H195.483C194.837 21.6448 194.304 22.1663 194.304 22.8239V48.2103C194.304 48.5165 194.281 48.8113 194.281 49.1287C194.281 54.2083 195.302 58.5395 197.343 62.1224C199.383 65.7166 202.184 68.4265 205.744 70.2746C209.304 72.1228 213.318 73.0411 217.797 73.0411C222.275 73.0411 226.335 72.0547 229.951 70.0705C233.568 68.0977 236.437 65.2404 238.546 61.5215C240.655 57.8025 241.709 53.3352 241.709 48.131C241.709 42.9267 240.689 38.5388 238.648 34.9899C236.607 31.4297 233.806 28.7539 230.246 26.9397C226.958 25.2617 223.285 24.366 219.214 24.2412L217.99 25.4431V31.8265C217.99 32.4501 218.477 32.9263 219.101 32.9944C220.699 33.1645 222.207 33.6633 223.625 34.5137C225.405 35.5682 226.856 37.2462 227.979 39.5592C229.101 41.8609 229.657 44.8996 229.657 48.6525C229.657 52.6096 229.112 55.7389 228.024 58.0406C226.935 60.3423 225.507 61.975 223.727 62.9388C221.947 63.8912 220.076 64.3674 218.092 64.3674C216.107 64.3674 214.225 63.8231 212.411 62.7347C210.597 61.6462 209.134 59.9341 208.012 57.5984C206.889 55.2627 206.334 52.2808 206.334 48.6525H206.311V22.7673C206.311 22.1663 205.824 21.6674 205.211 21.6674L205.223 21.6448Z" fill="black"/>
</svg>
